<svg width="73" height="40" viewBox="0 0 73 40" fill="none" xmlns="http://www.w3.org/2000/svg">
<path d="M33.4701 11.52C32.9901 11.968 32.3554 12.192 31.5661 12.192C30.7768 12.192 30.1421 11.968 29.6621 11.52C29.1821 11.072 28.9421 10.4853 28.9421 9.76V3.024C28.9421 2.29867 29.1821 1.71733 29.6621 1.28C30.1528 0.832 30.7874 0.608 31.5661 0.608C32.3448 0.608 32.9741 0.832 33.4541 1.28C33.9448 1.71733 34.1901 2.29867 34.1901 3.024V5.36H32.1741V3.04C32.1741 2.85867 32.1154 2.71467 31.9981 2.608C31.8914 2.50133 31.7474 2.448 31.5661 2.448C31.3848 2.448 31.2354 2.50133 31.1181 2.608C31.0114 2.71467 30.9581 2.85867 30.9581 3.04V9.76C30.9581 9.94133 31.0114 10.0853 31.1181 10.192C31.2354 10.2987 31.3848 10.352 31.5661 10.352C31.7474 10.352 31.8914 10.2987 31.9981 10.192C32.1154 10.0853 32.1741 9.94133 32.1741 9.76V7.28H34.1901V9.76C34.1901 10.4853 33.9501 11.072 33.4701 11.52ZM38.2076 12L37.9836 9.296H36.7836L36.5596 12H34.5276L35.8876 0.799999H38.9916L40.3356 12H38.2076ZM36.9276 7.632H37.8396L37.5196 3.728V2.8H37.2476V3.728L36.9276 7.632ZM44.6735 2.64H42.8815V5.424H44.4975V7.216H42.8815V10.16H44.6735V12H40.8655V0.799999H44.6735V2.64ZM47.8444 12.192C47.0657 12.192 46.4364 11.968 45.9564 11.52C45.4764 11.072 45.2364 10.4853 45.2364 9.76V8.096H47.2524V9.76C47.2524 9.94133 47.3057 10.0853 47.4124 10.192C47.519 10.2987 47.663 10.352 47.8444 10.352C48.0257 10.352 48.1697 10.2987 48.2764 10.192C48.3937 10.0853 48.4524 9.94133 48.4524 9.76V8.464C48.4524 8.22933 48.3404 8.00533 48.1164 7.792C47.903 7.57867 47.6417 7.376 47.3324 7.184C47.023 6.992 46.7084 6.784 46.3884 6.56C46.079 6.32533 45.8124 6.02133 45.5884 5.648C45.375 5.27467 45.2684 4.848 45.2684 4.368V3.024C45.2684 2.29867 45.503 1.71733 45.9724 1.28C46.4417 0.832 47.0657 0.608 47.8444 0.608C48.623 0.608 49.247 0.832 49.7164 1.28C50.1964 1.71733 50.4364 2.29867 50.4364 3.024V4.512H48.4204V3.008C48.4204 2.83733 48.367 2.704 48.2604 2.608C48.1537 2.50133 48.015 2.448 47.8444 2.448C47.6737 2.448 47.535 2.50133 47.4284 2.608C47.3324 2.704 47.2844 2.83733 47.2844 3.008V4.128C47.2844 4.37333 47.391 4.60267 47.6044 4.816C47.8284 5.02933 48.095 5.232 48.4044 5.424C48.7244 5.616 49.039 5.824 49.3484 6.048C49.6577 6.272 49.919 6.57067 50.1324 6.944C50.3564 7.31733 50.4684 7.744 50.4684 8.224V9.76C50.4684 10.4853 50.2284 11.072 49.7484 11.52C49.2684 11.968 48.6337 12.192 47.8444 12.192ZM55.0329 2.64H53.2409V5.424H54.8569V7.216H53.2409V10.16H55.0329V12H51.2249V0.799999H55.0329V2.64ZM59.1797 12L58.3477 7.728H57.7877V12H55.7717V0.799999H58.5717C59.2971 0.799999 59.8837 1.008 60.3317 1.424C60.7797 1.82933 61.0037 2.37333 61.0037 3.056V5.536C61.0037 6.28267 60.7317 6.85867 60.1877 7.264L61.2117 12H59.1797ZM57.7877 2.64V6H58.3797C58.5611 6 58.7051 5.94667 58.8117 5.84C58.9291 5.73333 58.9877 5.58933 58.9877 5.408V3.232C58.9877 3.05067 58.9291 2.90667 58.8117 2.8C58.7051 2.69333 58.5611 2.64 58.3797 2.64H57.7877ZM32.2221 13.8H34.2381V25H32.2221V20.216H31.0221V25H29.0061V13.8H31.0221V18.424H32.2221V13.8ZM35.1624 25V13.8H37.1784V25H35.1624ZM40.5162 25.192C39.7376 25.192 39.1082 24.968 38.6282 24.52C38.1482 24.072 37.9082 23.4853 37.9082 22.76V21.096H39.9242V22.76C39.9242 22.9413 39.9776 23.0853 40.0842 23.192C40.1909 23.2987 40.3349 23.352 40.5162 23.352C40.6976 23.352 40.8416 23.2987 40.9482 23.192C41.0656 23.0853 41.1242 22.9413 41.1242 22.76V21.464C41.1242 21.2293 41.0122 21.0053 40.7882 20.792C40.5749 20.5787 40.3136 20.376 40.0042 20.184C39.6949 19.992 39.3802 19.784 39.0602 19.56C38.7509 19.3253 38.4842 19.0213 38.2602 18.648C38.0469 18.2747 37.9402 17.848 37.9402 17.368V16.024C37.9402 15.2987 38.1749 14.7173 38.6442 14.28C39.1136 13.832 39.7376 13.608 40.5162 13.608C41.2949 13.608 41.9189 13.832 42.3882 14.28C42.8682 14.7173 43.1082 15.2987 43.1082 16.024V17.512H41.0922V16.008C41.0922 15.8373 41.0389 15.704 40.9322 15.608C40.8256 15.5013 40.6869 15.448 40.5162 15.448C40.3456 15.448 40.2069 15.5013 40.1002 15.608C40.0042 15.704 39.9562 15.8373 39.9562 16.008V17.128C39.9562 17.3733 40.0629 17.6027 40.2762 17.816C40.5002 18.0293 40.7669 18.232 41.0762 18.424C41.3962 18.616 41.7109 18.824 42.0202 19.048C42.3296 19.272 42.5909 19.5707 42.8042 19.944C43.0282 20.3173 43.1402 20.744 43.1402 21.224V22.76C43.1402 23.4853 42.9002 24.072 42.4202 24.52C41.9402 24.968 41.3056 25.192 40.5162 25.192ZM47.8811 13.8V15.64H46.7291V25H44.7131V15.64H43.5611V13.8H47.8811ZM52.892 24.52C52.412 24.968 51.7773 25.192 50.988 25.192C50.1987 25.192 49.564 24.968 49.084 24.52C48.604 24.072 48.364 23.4853 48.364 22.76V16.024C48.364 15.2987 48.604 14.7173 49.084 14.28C49.5747 13.832 50.2093 13.608 50.988 13.608C51.7667 13.608 52.396 13.832 52.876 14.28C53.3667 14.7173 53.612 15.2987 53.612 16.024V22.76C53.612 23.4853 53.372 24.072 52.892 24.52ZM50.54 23.192C50.6573 23.2987 50.8067 23.352 50.988 23.352C51.1693 23.352 51.3133 23.2987 51.42 23.192C51.5373 23.0853 51.596 22.9413 51.596 22.76V16.04C51.596 15.8587 51.5373 15.7147 51.42 15.608C51.3133 15.5013 51.1693 15.448 50.988 15.448C50.8067 15.448 50.6573 15.5013 50.54 15.608C50.4333 15.7147 50.38 15.8587 50.38 16.04V22.76C50.38 22.9413 50.4333 23.0853 50.54 23.192ZM57.8829 25L57.0509 20.728H56.4909V25H54.4749V13.8H57.2749C58.0002 13.8 58.5869 14.008 59.0349 14.424C59.4829 14.8293 59.7069 15.3733 59.7069 16.056V18.536C59.7069 19.2827 59.4349 19.8587 58.8909 20.264L59.9149 25H57.8829ZM56.4909 15.64V19H57.0829C57.2642 19 57.4082 18.9467 57.5149 18.84C57.6322 18.7333 57.6909 18.5893 57.6909 18.408V16.232C57.6909 16.0507 57.6322 15.9067 57.5149 15.8C57.4082 15.6933 57.2642 15.64 57.0829 15.64H56.4909ZM60.5061 25V13.8H62.5221V25H60.5061ZM67.892 24.52C67.412 24.968 66.7773 25.192 65.988 25.192C65.1987 25.192 64.564 24.968 64.084 24.52C63.604 24.072 63.364 23.4853 63.364 22.76V16.024C63.364 15.2987 63.604 14.7173 64.084 14.28C64.5747 13.832 65.2093 13.608 65.988 13.608C66.7667 13.608 67.396 13.832 67.876 14.28C68.3667 14.7173 68.612 15.2987 68.612 16.024V18.36H66.596V16.04C66.596 15.8587 66.5373 15.7147 66.42 15.608C66.3133 15.5013 66.1693 15.448 65.988 15.448C65.8067 15.448 65.6573 15.5013 65.54 15.608C65.4333 15.7147 65.38 15.8587 65.38 16.04V22.76C65.38 22.9413 65.4333 23.0853 65.54 23.192C65.6573 23.2987 65.8067 23.352 65.988 23.352C66.1693 23.352 66.3133 23.2987 66.42 23.192C66.5373 23.0853 66.596 22.9413 66.596 22.76V20.28H68.612V22.76C68.612 23.4853 68.372 24.072 67.892 24.52ZM29.0061 38V26.8H32.6061L33.1821 34.224V36H33.4701V34.224L34.0461 26.8H37.5821V38H35.5661V29.952L35.5821 29.04H35.3101L35.2781 29.952L34.5901 38H31.9981L31.2941 29.952L31.2781 29.04H31.0061L31.0221 29.952V38H29.0061ZM41.0665 38.192C40.2878 38.192 39.6585 37.968 39.1785 37.52C38.6985 37.072 38.4585 36.4853 38.4585 35.76V26.8H40.4745V35.76C40.4745 35.9413 40.5278 36.0853 40.6345 36.192C40.7412 36.2987 40.8852 36.352 41.0665 36.352C41.2478 36.352 41.3918 36.2987 41.4985 36.192C41.6158 36.0853 41.6745 35.9413 41.6745 35.76V26.8H43.6905V35.76C43.6905 36.4853 43.4505 37.072 42.9705 37.52C42.4905 37.968 41.8558 38.192 41.0665 38.192ZM47.0162 38.192C46.2376 38.192 45.6082 37.968 45.1282 37.52C44.6482 37.072 44.4082 36.4853 44.4082 35.76V34.096H46.4242V35.76C46.4242 35.9413 46.4776 36.0853 46.5842 36.192C46.6909 36.2987 46.8349 36.352 47.0162 36.352C47.1976 36.352 47.3416 36.2987 47.4482 36.192C47.5656 36.0853 47.6242 35.9413 47.6242 35.76V34.464C47.6242 34.2293 47.5122 34.0053 47.2882 33.792C47.0749 33.5787 46.8136 33.376 46.5042 33.184C46.1949 32.992 45.8802 32.784 45.5602 32.56C45.2509 32.3253 44.9842 32.0213 44.7602 31.648C44.5469 31.2747 44.4402 30.848 44.4402 30.368V29.024C44.4402 28.2987 44.6749 27.7173 45.1442 27.28C45.6136 26.832 46.2376 26.608 47.0162 26.608C47.7949 26.608 48.4189 26.832 48.8882 27.28C49.3682 27.7173 49.6082 28.2987 49.6082 29.024V30.512H47.5922V29.008C47.5922 28.8373 47.5389 28.704 47.4322 28.608C47.3256 28.5013 47.1869 28.448 47.0162 28.448C46.8456 28.448 46.7069 28.5013 46.6002 28.608C46.5042 28.704 46.4562 28.8373 46.4562 29.008V30.128C46.4562 30.3733 46.5629 30.6027 46.7762 30.816C47.0002 31.0293 47.2669 31.232 47.5762 31.424C47.8962 31.616 48.2109 31.824 48.5202 32.048C48.8296 32.272 49.0909 32.5707 49.3042 32.944C49.5282 33.3173 49.6402 33.744 49.6402 34.224V35.76C49.6402 36.4853 49.4002 37.072 48.9202 37.52C48.4402 37.968 47.8056 38.192 47.0162 38.192ZM54.2047 28.64H52.4127V31.424H54.0287V33.216H52.4127V36.16H54.2047V38H50.3967V26.8H54.2047V28.64ZM57.5196 38.192C56.7409 38.192 56.1116 37.968 55.6316 37.52C55.1516 37.072 54.9116 36.4853 54.9116 35.76V26.8H56.9276V35.76C56.9276 35.9413 56.9809 36.0853 57.0876 36.192C57.1943 36.2987 57.3383 36.352 57.5196 36.352C57.7009 36.352 57.8449 36.2987 57.9516 36.192C58.0689 36.0853 58.1276 35.9413 58.1276 35.76V26.8H60.1436V35.76C60.1436 36.4853 59.9036 37.072 59.4236 37.52C58.9436 37.968 58.3089 38.192 57.5196 38.192ZM61.0374 38V26.8H64.6374L65.2134 34.224V36H65.5014V34.224L66.0774 26.8H69.6134V38H67.5974V29.952L67.6134 29.04H67.3414L67.3094 29.952L66.6214 38H64.0294L63.3254 29.952L63.3094 29.04H63.0374L63.0534 29.952V38H61.0374Z" fill="#D9D9D9"/>
<path d="M10.375 2.46743C11.0456 1.3498 12.6653 1.3498 13.3359 2.46743L23.1779 18.8708C23.5059 19.4175 23.5059 20.1006 23.1779 20.6473L13.3359 37.0507C12.6653 38.1683 11.0456 38.1683 10.375 37.0507L0.532965 20.6473C0.204914 20.1006 0.204914 19.4175 0.532965 18.8708L10.375 2.46743Z" fill="#B5964D"/>
</svg>
